<mxfile host="app.diagrams.net" agent="Mozilla/5.0 (Windows NT 10.0; Win64; x64; rv:138.0) Gecko/20100101 Firefox/138.0" version="27.0.5">
  <diagram name="Page-1" id="wTkwqVMPpvN7Wz88UUyB">
    <mxGraphModel dx="1310" dy="785" grid="1" gridSize="10" guides="1" tooltips="1" connect="1" arrows="1" fold="1" page="1" pageScale="1" pageWidth="3300" pageHeight="4681" math="0" shadow="0">
      <root>
        <mxCell id="0" />
        <mxCell id="1" parent="0" />
        <mxCell id="k1J8kmZmEWqCN7NI0roi-3" style="edgeStyle=orthogonalEdgeStyle;rounded=0;orthogonalLoop=1;jettySize=auto;html=1;exitX=1;exitY=0.5;exitDx=0;exitDy=0;entryX=0;entryY=0.5;entryDx=0;entryDy=0;" edge="1" parent="1" source="k1J8kmZmEWqCN7NI0roi-1" target="k1J8kmZmEWqCN7NI0roi-2">
          <mxGeometry relative="1" as="geometry" />
        </mxCell>
        <mxCell id="k1J8kmZmEWqCN7NI0roi-1" value="data:time-series&#xa;Raw EEG Signals" style="rectangle;fillColor=#fff2cc;strokeColor=#d6b656;" name="data" vertex="1" parent="1">
          <mxGeometry x="360" y="230" width="100" height="50" as="geometry" />
        </mxCell>
        <mxCell id="k1J8kmZmEWqCN7NI0roi-5" style="edgeStyle=orthogonalEdgeStyle;rounded=0;orthogonalLoop=1;jettySize=auto;html=1;exitX=1;exitY=0.5;exitDx=0;exitDy=0;entryX=0.5;entryY=0;entryDx=0;entryDy=0;" edge="1" parent="1" source="k1J8kmZmEWqCN7NI0roi-2" target="k1J8kmZmEWqCN7NI0roi-4">
          <mxGeometry relative="1" as="geometry" />
        </mxCell>
        <mxCell id="k1J8kmZmEWqCN7NI0roi-2" value="transform" style="rounded=1;whiteSpace=wrap;html=1;arcSize=50;fillColor=#f8cecc;strokeColor=#b85450;" name="transform" vertex="1" parent="1">
          <mxGeometry x="540" y="230" width="100" height="50" as="geometry" />
        </mxCell>
        <mxCell id="k1J8kmZmEWqCN7NI0roi-7" style="edgeStyle=orthogonalEdgeStyle;rounded=0;orthogonalLoop=1;jettySize=auto;html=1;exitX=0.5;exitY=1;exitDx=0;exitDy=0;entryX=1;entryY=0.5;entryDx=0;entryDy=0;" edge="1" parent="1" source="k1J8kmZmEWqCN7NI0roi-4" target="k1J8kmZmEWqCN7NI0roi-6">
          <mxGeometry relative="1" as="geometry" />
        </mxCell>
        <mxCell id="k1J8kmZmEWqCN7NI0roi-4" value="data:time-series&#xa;Segmented EEG&#xa;Signals" style="rectangle;fillColor=#fff2cc;strokeColor=#d6b656;" name="data" vertex="1" parent="1">
          <mxGeometry x="670" y="330" width="100" height="50" as="geometry" />
        </mxCell>
        <mxCell id="k1J8kmZmEWqCN7NI0roi-9" style="edgeStyle=orthogonalEdgeStyle;rounded=0;orthogonalLoop=1;jettySize=auto;html=1;exitX=0;exitY=0.5;exitDx=0;exitDy=0;entryX=0.5;entryY=0;entryDx=0;entryDy=0;" edge="1" parent="1" source="k1J8kmZmEWqCN7NI0roi-6" target="k1J8kmZmEWqCN7NI0roi-8">
          <mxGeometry relative="1" as="geometry" />
        </mxCell>
        <mxCell id="k1J8kmZmEWqCN7NI0roi-6" value="transform:embed" style="rounded=1;whiteSpace=wrap;html=1;arcSize=50;fillColor=#f8cecc;strokeColor=#b85450;" name="transform" vertex="1" parent="1">
          <mxGeometry x="540" y="430" width="100" height="50" as="geometry" />
        </mxCell>
        <mxCell id="k1J8kmZmEWqCN7NI0roi-11" style="edgeStyle=orthogonalEdgeStyle;rounded=0;orthogonalLoop=1;jettySize=auto;html=1;exitX=0;exitY=0.5;exitDx=0;exitDy=0;entryX=0.5;entryY=0;entryDx=0;entryDy=0;" edge="1" parent="1" source="k1J8kmZmEWqCN7NI0roi-8" target="k1J8kmZmEWqCN7NI0roi-10">
          <mxGeometry relative="1" as="geometry" />
        </mxCell>
        <mxCell id="k1J8kmZmEWqCN7NI0roi-13" style="edgeStyle=orthogonalEdgeStyle;rounded=0;orthogonalLoop=1;jettySize=auto;html=1;exitX=0.5;exitY=1;exitDx=0;exitDy=0;entryX=0;entryY=0.5;entryDx=0;entryDy=0;" edge="1" parent="1" source="k1J8kmZmEWqCN7NI0roi-8" target="k1J8kmZmEWqCN7NI0roi-12">
          <mxGeometry relative="1" as="geometry" />
        </mxCell>
        <mxCell id="k1J8kmZmEWqCN7NI0roi-8" value="data:time-series&#xa;Extracted Features" style="rectangle;fillColor=#fff2cc;strokeColor=#d6b656;" name="data" vertex="1" parent="1" tooltip="⚠️ Node not part of any valid pattern.">
          <mxGeometry x="410" y="530" width="100" height="50" as="geometry" />
        </mxCell>
        <mxCell id="k1J8kmZmEWqCN7NI0roi-26" style="edgeStyle=orthogonalEdgeStyle;rounded=0;orthogonalLoop=1;jettySize=auto;html=1;exitX=0.5;exitY=1;exitDx=0;exitDy=0;entryX=0.5;entryY=0;entryDx=0;entryDy=0;" edge="1" parent="1" source="k1J8kmZmEWqCN7NI0roi-10" target="k1J8kmZmEWqCN7NI0roi-25">
          <mxGeometry relative="1" as="geometry" />
        </mxCell>
        <mxCell id="k1J8kmZmEWqCN7NI0roi-10" value="infer:deduce" style="rounded=1;whiteSpace=wrap;html=1;arcSize=50;fillColor=#bac8d3;strokeColor=#23445d;" name="infer:deduce" vertex="1" parent="1" tooltip="⚠️ Node not part of any valid pattern.">
          <mxGeometry x="280" y="630" width="100" height="50" as="geometry" />
        </mxCell>
        <mxCell id="k1J8kmZmEWqCN7NI0roi-15" style="edgeStyle=orthogonalEdgeStyle;rounded=0;orthogonalLoop=1;jettySize=auto;html=1;exitX=0.5;exitY=0;exitDx=0;exitDy=0;entryX=0;entryY=0.5;entryDx=0;entryDy=0;" edge="1" parent="1" source="k1J8kmZmEWqCN7NI0roi-12" target="k1J8kmZmEWqCN7NI0roi-14">
          <mxGeometry relative="1" as="geometry" />
        </mxCell>
        <mxCell id="k1J8kmZmEWqCN7NI0roi-12" value="transform:embed" style="rounded=1;whiteSpace=wrap;html=1;arcSize=50;fillColor=#f8cecc;strokeColor=#b85450;" name="transform" vertex="1" parent="1">
          <mxGeometry x="540" y="630" width="100" height="50" as="geometry" />
        </mxCell>
        <mxCell id="k1J8kmZmEWqCN7NI0roi-21" style="edgeStyle=orthogonalEdgeStyle;rounded=0;orthogonalLoop=1;jettySize=auto;html=1;exitX=1;exitY=0.5;exitDx=0;exitDy=0;entryX=0.5;entryY=0;entryDx=0;entryDy=0;" edge="1" parent="1" source="k1J8kmZmEWqCN7NI0roi-14" target="k1J8kmZmEWqCN7NI0roi-19">
          <mxGeometry relative="1" as="geometry" />
        </mxCell>
        <mxCell id="k1J8kmZmEWqCN7NI0roi-14" value="data:time-series&#xa;Labeled Data" style="rectangle;fillColor=#fff2cc;strokeColor=#d6b656;" name="data" vertex="1" parent="1">
          <mxGeometry x="670" y="530" width="100" height="50" as="geometry" />
        </mxCell>
        <mxCell id="k1J8kmZmEWqCN7NI0roi-16" value="data:time-series&#xa;Unlabeled Data" style="rectangle;fillColor=#fff2cc;strokeColor=#d6b656;" name="data" vertex="1" parent="1" tooltip="⚠️ Node is disconnected.">
          <mxGeometry x="670" y="730" width="100" height="50" as="geometry" />
        </mxCell>
        <mxCell id="k1J8kmZmEWqCN7NI0roi-18" value="&lt;div&gt;error&lt;/div&gt;&lt;div&gt;|&lt;/div&gt;&lt;div&gt;&amp;nbsp;&amp;nbsp; -&amp;gt;&lt;/div&gt;" style="text;html=1;align=center;verticalAlign=middle;whiteSpace=wrap;rounded=0;dashed=1;fillColor=#f5f5f5;fontColor=#333333;strokeColor=#666666;strokeWidth=2;" name="text" vertex="1" parent="1">
          <mxGeometry x="590" y="680" width="80" height="80" as="geometry" />
        </mxCell>
        <mxCell id="k1J8kmZmEWqCN7NI0roi-24" style="edgeStyle=orthogonalEdgeStyle;rounded=0;orthogonalLoop=1;jettySize=auto;html=1;exitX=1;exitY=0.5;exitDx=0;exitDy=0;entryX=0.5;entryY=0;entryDx=0;entryDy=0;" edge="1" parent="1" source="k1J8kmZmEWqCN7NI0roi-19" target="k1J8kmZmEWqCN7NI0roi-23">
          <mxGeometry relative="1" as="geometry" />
        </mxCell>
        <mxCell id="k1J8kmZmEWqCN7NI0roi-19" value="generate:train" style="rounded=1;whiteSpace=wrap;html=1;arcSize=50;fillColor=#e1d5e7;strokeColor=#9673a6;" name="generate:train" vertex="1" parent="1" tooltip="⚠️ Node not part of any valid pattern.">
          <mxGeometry x="800" y="630" width="100" height="50" as="geometry" />
        </mxCell>
        <mxCell id="k1J8kmZmEWqCN7NI0roi-22" value="&lt;div&gt;error&lt;/div&gt;&lt;div&gt;&amp;nbsp; ^&lt;/div&gt;&lt;div&gt;&amp;nbsp; |&lt;/div&gt;&lt;div&gt;--&lt;/div&gt;" style="text;html=1;align=center;verticalAlign=middle;whiteSpace=wrap;rounded=0;dashed=1;fillColor=#f5f5f5;fontColor=#333333;strokeColor=#666666;strokeWidth=2;" name="text" vertex="1" parent="1">
          <mxGeometry x="770" y="680" width="80" height="80" as="geometry" />
        </mxCell>
        <mxCell id="k1J8kmZmEWqCN7NI0roi-23" value="model&#xa;Classification&#xa;Model" style="shape=hexagon;perimeter=hexagonPerimeter2;fillColor=#b0e3e6;strokeColor=#0e8088;" name="model" vertex="1" parent="1" tooltip="⚠️ Node not part of any valid pattern.">
          <mxGeometry x="920" y="730" width="120" height="50" as="geometry" />
        </mxCell>
        <mxCell id="k1J8kmZmEWqCN7NI0roi-31" style="edgeStyle=orthogonalEdgeStyle;rounded=0;orthogonalLoop=1;jettySize=auto;html=1;exitX=0.5;exitY=1;exitDx=0;exitDy=0;entryX=0;entryY=0.5;entryDx=0;entryDy=0;" edge="1" parent="1" source="k1J8kmZmEWqCN7NI0roi-25" target="k1J8kmZmEWqCN7NI0roi-27">
          <mxGeometry relative="1" as="geometry" />
        </mxCell>
        <mxCell id="k1J8kmZmEWqCN7NI0roi-25" value="symbol&#xa;Fuzzy Rules" style="rectangle;fillColor=#dae8fc;strokeColor=#6c8ebf;" name="symbol" vertex="1" parent="1" tooltip="⚠️ Node not part of any valid pattern.">
          <mxGeometry x="280" y="760" width="100" height="50" as="geometry" />
        </mxCell>
        <mxCell id="k1J8kmZmEWqCN7NI0roi-33" style="edgeStyle=orthogonalEdgeStyle;rounded=0;orthogonalLoop=1;jettySize=auto;html=1;exitX=0.5;exitY=1;exitDx=0;exitDy=0;entryX=0.5;entryY=0;entryDx=0;entryDy=0;" edge="1" parent="1" source="k1J8kmZmEWqCN7NI0roi-27" target="k1J8kmZmEWqCN7NI0roi-32">
          <mxGeometry relative="1" as="geometry" />
        </mxCell>
        <mxCell id="k1J8kmZmEWqCN7NI0roi-27" value="generate:train" style="rounded=1;whiteSpace=wrap;html=1;arcSize=50;fillColor=#e1d5e7;strokeColor=#9673a6;" name="generate:train" vertex="1" parent="1">
          <mxGeometry x="930" y="860" width="100" height="50" as="geometry" />
        </mxCell>
        <mxCell id="k1J8kmZmEWqCN7NI0roi-29" value="&lt;div&gt;error&lt;/div&gt;&lt;div&gt;|&lt;/div&gt;&lt;div&gt;|&lt;/div&gt;&lt;div&gt;v&lt;/div&gt;" style="text;html=1;align=center;verticalAlign=middle;whiteSpace=wrap;rounded=0;dashed=1;fillColor=#f5f5f5;fontColor=#333333;strokeColor=#666666;strokeWidth=2;" name="text" vertex="1" parent="1">
          <mxGeometry x="965" y="780" width="30" height="80" as="geometry" />
        </mxCell>
        <mxCell id="k1J8kmZmEWqCN7NI0roi-35" style="edgeStyle=orthogonalEdgeStyle;rounded=0;orthogonalLoop=1;jettySize=auto;html=1;exitX=0.5;exitY=1;exitDx=0;exitDy=0;entryX=0;entryY=0.5;entryDx=0;entryDy=0;" edge="1" parent="1" source="k1J8kmZmEWqCN7NI0roi-32" target="k1J8kmZmEWqCN7NI0roi-34">
          <mxGeometry relative="1" as="geometry" />
        </mxCell>
        <mxCell id="k1J8kmZmEWqCN7NI0roi-32" value="model:hybrid&#xa;TSK Fuzzy&#xa;System" style="shape=hexagon;perimeter=hexagonPerimeter2;fillColor=#b0e3e6;strokeColor=#0e8088;" name="model" vertex="1" parent="1">
          <mxGeometry x="920" y="990" width="120" height="50" as="geometry" />
        </mxCell>
        <mxCell id="k1J8kmZmEWqCN7NI0roi-39" style="edgeStyle=orthogonalEdgeStyle;rounded=0;orthogonalLoop=1;jettySize=auto;html=1;exitX=0.5;exitY=1;exitDx=0;exitDy=0;entryX=0.5;entryY=0;entryDx=0;entryDy=0;" edge="1" parent="1" source="k1J8kmZmEWqCN7NI0roi-34" target="k1J8kmZmEWqCN7NI0roi-38">
          <mxGeometry relative="1" as="geometry" />
        </mxCell>
        <mxCell id="k1J8kmZmEWqCN7NI0roi-34" value="infer:deduce" style="rounded=1;whiteSpace=wrap;html=1;arcSize=50;fillColor=#bac8d3;strokeColor=#23445d;" name="infer:deduce" vertex="1" parent="1">
          <mxGeometry x="1060" y="1090" width="100" height="50" as="geometry" />
        </mxCell>
        <mxCell id="k1J8kmZmEWqCN7NI0roi-37" style="edgeStyle=orthogonalEdgeStyle;rounded=0;orthogonalLoop=1;jettySize=auto;html=1;exitX=0.5;exitY=1;exitDx=0;exitDy=0;entryX=1;entryY=0.5;entryDx=0;entryDy=0;" edge="1" parent="1" source="k1J8kmZmEWqCN7NI0roi-36" target="k1J8kmZmEWqCN7NI0roi-34">
          <mxGeometry relative="1" as="geometry" />
        </mxCell>
        <mxCell id="k1J8kmZmEWqCN7NI0roi-36" value="data:time-series&#xa;EEG Data" style="rectangle;fillColor=#fff2cc;strokeColor=#d6b656;" name="data" vertex="1" parent="1">
          <mxGeometry x="1190" y="990" width="100" height="50" as="geometry" />
        </mxCell>
        <mxCell id="k1J8kmZmEWqCN7NI0roi-38" value="symbol&#xa;Seizure Instances" style="rectangle;fillColor=#dae8fc;strokeColor=#6c8ebf;" name="symbol" vertex="1" parent="1">
          <mxGeometry x="1060" y="1220" width="100" height="50" as="geometry" />
        </mxCell>
        <mxCell id="k1J8kmZmEWqCN7NI0roi-40" value="error" style="text;html=1;align=center;verticalAlign=middle;whiteSpace=wrap;rounded=0;dashed=1;fillColor=#f5f5f5;fontColor=#333333;strokeColor=#666666;strokeWidth=2;" name="text" vertex="1" parent="1">
          <mxGeometry x="220" y="640" width="40" height="30" as="geometry" />
        </mxCell>
        <mxCell id="k1J8kmZmEWqCN7NI0roi-41" value="error" style="text;html=1;align=center;verticalAlign=middle;whiteSpace=wrap;rounded=0;dashed=1;fillColor=#f5f5f5;fontColor=#333333;strokeColor=#666666;strokeWidth=2;" name="text" vertex="1" parent="1">
          <mxGeometry x="890" y="590" width="40" height="30" as="geometry" />
        </mxCell>
      </root>
    </mxGraphModel>
  </diagram>
</mxfile>
